<svg id="Layer_1" data-name="Layer 1" xmlns="http://www.w3.org/2000/svg" viewBox="0 0 325.44 64.08"><path d="M131.2,105.43l6.48-23h13.68l-11.88,38.15H126.16l-7.2-23-7.2,23H98.44L86.56,82.4h13.68l6.48,23,6.48-23h11.52Z" transform="translate(-86.56 -69.44)"/><path d="M188.8,119.83a246.33,246.33,0,0,1-25.2,1.44,10.15,10.15,0,0,1-10.8-10.8V93.2q0-5.4,3.06-8.46t8.46-3.06h14.4q5.4,0,8.46,3.06t3.06,8.46v13.31H165.4v2.88a2.41,2.41,0,0,0,.72,1.8,2.45,2.45,0,0,0,1.8.73q7.13,0,20.88-1.09ZM168.28,90.68a2.55,2.55,0,0,0-2.88,2.88v4h12.24v-4a2.55,2.55,0,0,0-2.88-2.88Z" transform="translate(-86.56 -69.44)"/><path d="M212.56,83.83v36.72H200v-27h-5.4V83.83ZM200,69.44h12.6V79.52H200Z" transform="translate(-86.56 -69.44)"/><path d="M244.6,117.67a61,61,0,0,1-12.24,1.44h-2.52a10.15,10.15,0,0,1-10.8-10.8V93.92c0-3.61,1-6.42,3.06-8.46s4.86-3.06,8.46-3.06H257.2v40.31a10.15,10.15,0,0,1-10.8,10.8,246.33,246.33,0,0,1-25.2-1.44v-9.36q13.76,1.08,20.88,1.08a2.46,2.46,0,0,0,2.52-2.52ZM236,109.39a49.05,49.05,0,0,0,8.64-.72V92.12H234.52A2.55,2.55,0,0,0,231.64,95v11.88a2.46,2.46,0,0,0,2.52,2.51Z" transform="translate(-86.56 -69.44)"/><path d="M277,83.12a61.69,61.69,0,0,1,12.24-1.44h3.24a10.15,10.15,0,0,1,10.8,10.8v28.07h-12.6V93.92a2.46,2.46,0,0,0-2.52-2.52h-2.52a40.34,40.34,0,0,0-5,.28c-1.52.2-2.73.34-3.64.44v28.43H264.4V70.16H277Z" transform="translate(-86.56 -69.44)"/><path d="M336.4,120.55a133.49,133.49,0,0,1-13.68.72,10.15,10.15,0,0,1-10.8-10.8V92.12H307.6V82.4h4.32l1.44-8.64h11.16V82.4h9v9.72h-9v16.55a2.46,2.46,0,0,0,2.52,2.52h9.36Z" transform="translate(-86.56 -69.44)"/><path d="M376,119.83a246.64,246.64,0,0,1-25.2,1.44,10.15,10.15,0,0,1-10.8-10.8V93.2q0-5.4,3.06-8.46t8.46-3.06h14.4q5.4,0,8.46,3.06t3.06,8.46v13.31H352.6v2.88a2.41,2.41,0,0,0,.72,1.8,2.45,2.45,0,0,0,1.8.73q7.13,0,20.88-1.09ZM355.48,90.68a2.55,2.55,0,0,0-2.88,2.88v4h12.24v-4A2.55,2.55,0,0,0,362,90.68Z" transform="translate(-86.56 -69.44)"/><path d="M405.88,92.83A22.81,22.81,0,0,0,396.52,95v25.55h-12.6V82.4h11.16l.72,4.68q6.18-5.4,13-5.4H412V92.83Z" transform="translate(-86.56 -69.44)"/></svg>